<svg xmlns="http://www.w3.org/2000/svg" viewBox="0 0 320 320" preserveAspectRatio="xMidYMid meet">
    <!-- Brand red disc -->
    <circle cx="160" cy="160" r="160" fill="#e53225"/>

    <!-- Dragon body in white, lifted from components/application-logo.blade.php.
         Natural bbox is ~(5,32)–(315,343), center ~(160,187). We scale to 0.85
         to leave ~7% margin inside the disc, then translate so the scaled
         center (136, 159.2) lands on the disc center (160, 160). -->
    <g transform="translate(24, 0.8) scale(0.85)" fill="#ffffff">
        <path d="M 189.425781 162.871094 C 193.40625 182.605469 184.640625 214.300781 171.835938 240.945312 C 138.824219 309.621094 215.164062 343.617188 264.394531 300.71875 C 295.789062 273.386719 314.746094 232.417969 314.746094 187.464844 C 314.746094 126.945312 279.5625 74.707031 228.589844 50.050781 C 262.03125 77.136719 282.175781 111.128906 280.496094 156.519531 C 272.042969 147.554688 261.472656 141.515625 248.480469 138.835938 C 286.648438 183.851562 278.195312 235.09375 256.625 246.988281 C 238.597656 256.949219 217.027344 245.179688 222.1875 210.8125 C 232.566406 215.917969 238.472656 225.132812 241.953125 236.527344 C 254.261719 197.363281 245.125 168.785156 215.347656 150.417969 C 225.976562 148.921875 235.488281 151.972656 243.570312 160.566406 C 237.726562 132.175781 223.304688 110.507812 185.386719 107.269531 C 189.984375 101.914062 196.140625 98.367188 203.785156 96.625 C 196.449219 93.324219 188.433594 91.207031 179.417969 90.769531 C 168.664062 96.375 159.089844 103.285156 150.511719 111.253906 C 167.546875 85.042969 188.992188 61.570312 214.167969 40.460938 C 166.488281 61.320312 118.933594 92.265625 80.144531 129.375 C 82.320312 162.0625 57.515625 179.058594 58.386719 153.46875 C 32.714844 190.578125 42.597656 216.789062 92.824219 207.199219 C 81.261719 201.285156 88.226562 193.066406 97.984375 194.6875 C 106.003906 195.992188 119.617188 196.679688 128.320312 189.457031 C 90.835938 183.355469 134.910156 161.3125 177.304688 169.78125 C 173.761719 158.636719 165.742188 150.230469 154.738281 145.5625 C 172.703125 140.019531 186.195312 147.179688 189.425781 162.871094 Z M 241.582031 300.160156 C 207.949219 299.410156 191.355469 270.148438 193.28125 232.480469 C 175.6875 282.664062 192.285156 313.730469 241.582031 300.160156 Z M 96.429688 141.140625 C 94.9375 145.625 92.453125 149.546875 89.71875 153.28125 C 91.582031 147.863281 92.886719 142.199219 92.886719 136.160156 L 108.304688 123.457031 L 102.460938 139.148438 Z M 111.347656 238.582031 C 100.097656 233.414062 95.3125 226.253906 96.058594 217.351562 C 121.109375 235.839844 163.070312 204.273438 137.273438 180.117188 C 167.980469 174.449219 174.195312 198.546875 162.324219 217.289062 C 108.488281 302.214844 156.105469 338.824219 197.570312 338.015625 C 185.199219 341.25 172.144531 342.996094 158.78125 342.996094 C 111.722656 342.996094 69.636719 321.640625 41.726562 288.015625 C 59.816406 297.171875 74.488281 294.242188 87.601562 285.777344 C -9.746094 261.371094 -19.753906 156.582031 51.300781 78.628906 C 3.308594 145.933594 21.335938 253.648438 111.347656 238.582031 Z M 154.613281 31.621094 C 148.523438 41.957031 143.113281 52.664062 139.882812 64.621094 L 151.753906 65.242188 C 135.53125 73.898438 120.300781 84.355469 105.941406 96.5 C 116.757812 73.273438 131.925781 51.359375 154.613281 31.621094 Z"/>
    </g>
</svg>
